<svg viewBox="0 0 30 30" xmlns="http://www.w3.org/2000/svg" xmlns:xlink="http://www.w3.org/1999/xlink" width="30.000000" height="30.000002" fill="none">
	<rect id="colors" width="30.000000" height="30.000002" x="0.000000" y="0.000000" />
	<path id="Icon" d="M15 5C18.4518 5 21.25 7.79822 21.25 11.25C21.25 11.7125 21.1998 12.1634 21.1044 12.5973C20.566 15.0479 18.5894 16.9596 16.1044 17.4027C15.7459 17.4666 15.3769 17.5 15 17.5C12.0108 17.5 9.51167 15.4015 8.89558 12.5973C8.80025 12.1634 8.75 11.7125 8.75 11.25C8.75 7.79822 11.5482 5 15 5ZM16.1044 17.4027C16.1998 17.8366 16.25 18.2875 16.25 18.75C16.25 20.1573 15.7849 21.4559 15 22.5006C13.8597 24.0183 12.0445 25 10 25C6.54822 25 3.75 22.2018 3.75 18.75C3.75 15.6751 5.97056 13.1188 8.89558 12.5973M21.1044 12.5973C24.0294 13.1188 26.25 15.6751 26.25 18.75C26.25 22.2018 23.4518 25 20 25C17.9555 25 16.1403 24.0183 15 22.5006" fill-rule="evenodd" stroke="rgb(226,0,255)" stroke-linecap="round" stroke-linejoin="round" stroke-width="2" />
</svg>
