<svg viewBox="0 0 60 60" xmlns="http://www.w3.org/2000/svg" xmlns:xlink="http://www.w3.org/1999/xlink" width="60.000000" height="60.000000" fill="none">
	<rect id="hourglass-half" width="60.000000" height="60.000000" x="0.000000" y="0.000000" />
	<path id="Icon" d="M37.5 45L22.5 45M35 15L25 15M50 7.5L47.5 7.5L12.5 7.5L10 7.5M50 52.5L47.5 52.5L12.5 52.5L10 52.5M47.5 52.5C47.5 46.2244 44.4693 40.3352 39.3627 36.6876L30 30L20.6373 23.3124C15.5307 19.6648 12.5 13.7756 12.5 7.5M12.5 52.5C12.5 46.2244 15.5307 40.3352 20.6373 36.6876L30 30M30 30L39.3627 23.3124C44.4693 19.6648 47.5 13.7756 47.5 7.5" fill-rule="evenodd" stroke="rgb(239,239,239)" stroke-linecap="round" stroke-linejoin="round" stroke-width="2" />
</svg>
