<svg viewBox="0 0 24 24" xmlns="http://www.w3.org/2000/svg" xmlns:xlink="http://www.w3.org/1999/xlink" width="24.000000" height="24.000000" fill="none">
	<rect id="basket-shopping" width="24.000000" height="24.000000" x="0.000000" y="0.000000" />
	<path id="Icon" d="M20 10L18.5145 17.4276C18.3312 18.3439 18.2396 18.8021 18.0004 19.1448C17.7894 19.447 17.499 19.685 17.1613 19.8326C16.7783 20 16.3111 20 15.3766 20L8.62337 20C7.6889 20 7.22166 20 6.83869 19.8326C6.50097 19.685 6.2106 19.447 5.99964 19.1448C5.76041 18.8021 5.66878 18.3439 5.48551 17.4276L4 10M3 10L4 10L6 10L18 10L20 10L21 10M9 13L9 16M12 13L12 16M15 13L15 16M6 10L9 4M18 10L15 4" fill-rule="evenodd" stroke="rgb(239,239,239)" stroke-linecap="round" stroke-linejoin="round" stroke-width="2" />
</svg>
