<svg viewBox="0 0 36 36" xmlns="http://www.w3.org/2000/svg" xmlns:xlink="http://www.w3.org/1999/xlink" width="36.000000" height="36.000000" fill="none">
	<rect id="badge-dollar" width="36.000000" height="36.000000" x="0.000000" y="0.000000" />
	<path id="Icon" d="M21 14.2499C20.25 14.0638 19.0276 14.057 18 14.0638C16.7889 14.1016 15.0025 14.605 15 16.0311C14.9974 17.5504 16.5 17.9999 18 17.9999C19.5 17.9999 21 18.3467 21 19.9686C21 21.1875 19.5096 21.7222 18 21.8991C16.8 21.8991 16.5 21.9374 15 21.7499M18 21.8991L18 24M18 12L18 14.0638M27.5459 8.45401C28.3918 9.29983 28.8305 10.3986 28.8621 11.5068C28.8934 12.6035 28.9091 13.1518 28.9412 13.2794C29.0101 13.5526 28.9301 13.3594 29.0746 13.6013C29.142 13.7143 29.5188 14.1131 30.272 14.9107C31.0333 15.7167 31.5 16.8038 31.5 18C31.5 19.1962 31.0333 20.2833 30.272 21.0893C29.5188 21.8869 29.142 22.2857 29.0746 22.3987C28.9301 22.6406 29.0101 22.4474 28.9412 22.7206C28.9091 22.8482 28.8934 23.3965 28.8621 24.4932C28.8305 25.6014 28.3918 26.7002 27.5459 27.546C26.7001 28.3918 25.6013 28.8306 24.4931 28.8622C23.3965 28.8935 22.8482 28.9091 22.7205 28.9413C22.4473 29.0102 22.6406 28.9301 22.3987 29.0746C22.2857 29.1421 21.8869 29.5188 21.0893 30.272C20.2833 31.0333 19.1962 31.5 18 31.5C16.8038 31.5 15.7167 31.0333 14.9107 30.2721C14.1131 29.5187 13.7143 29.1421 13.6013 29.0746C13.3594 28.9301 13.5527 29.0102 13.2794 28.9413C13.1518 28.9091 12.6034 28.8935 11.5068 28.8622C10.3986 28.8306 9.29979 28.3918 8.45395 27.546C7.60811 26.7002 7.16938 25.6014 7.13777 24.4931C7.10649 23.3965 7.09085 22.8481 7.05867 22.7205C6.98978 22.4473 7.06983 22.6406 6.92536 22.3987C6.85788 22.2857 6.48123 21.8869 5.72793 21.0893C4.96669 20.2833 4.5 19.1961 4.5 18C4.5 16.8039 4.96669 15.7167 5.72793 14.9107C6.48123 14.1131 6.85788 13.7143 6.92536 13.6013C7.06983 13.3594 6.98978 13.5527 7.05867 13.2795C7.09085 13.1519 7.10649 12.6035 7.13777 11.5069C7.16938 10.3986 7.60811 9.29985 8.45395 8.45401C9.29979 7.60817 10.3986 7.16944 11.5068 7.13783C12.6035 7.10654 13.1518 7.0909 13.2794 7.05872C13.5527 6.98982 13.3594 7.06987 13.6013 6.92541C13.7143 6.85792 14.1131 6.48123 14.9107 5.72794C15.7167 4.9667 16.8038 4.5 18 4.5C19.1962 4.5 20.2833 4.96671 21.0893 5.72796C21.8869 6.48126 22.2857 6.85791 22.3987 6.9254C22.6406 7.06986 22.4473 6.98981 22.7205 7.05871C22.8482 7.09089 23.3965 7.10654 24.4931 7.13783C25.6013 7.16945 26.7001 7.60818 27.5459 8.45401Z" fill-rule="evenodd" stroke="rgb(76,255,0)" stroke-linecap="round" stroke-linejoin="round" stroke-width="2" />
</svg>
