<svg viewBox="0 0 150 150" xmlns="http://www.w3.org/2000/svg" xmlns:xlink="http://www.w3.org/1999/xlink" width="150.000000" height="150.000000" fill="none">
	<rect id="knife-kitchen" width="150.000000" height="150.000000" x="0.000000" y="0.000000" />
	<path id="Icon" d="M116.331 19.1929C120.519 15.176 126.99 14.345 132.132 17.1638C139.65 21.286 141.025 31.1393 134.902 37.0143L132.483 39.3355C131.007 40.7522 129.004 41.548 126.916 41.548L120.047 41.548L106.541 54.5074L106.541 55.6382C106.541 58.8079 106.541 60.3928 106.168 61.8843C105.837 63.2066 105.291 64.4707 104.551 65.6302C103.716 66.938 102.548 68.0587 100.212 70.3L94.7237 75.5658L76.1519 57.7339L116.331 19.1929ZM79.5285 60.976L61.0007 78.7584C52.7711 86.6571 48.6563 90.6064 44.9247 94.8616C41.6089 98.6428 38.5213 102.603 35.6768 106.722C32.4758 111.358 29.6888 116.261 24.1149 126.066L18.75 135.503C36.3439 133.393 52.8571 126.213 66.1093 114.91L106.541 80.4261L97.9275 72.4917" fill-rule="evenodd" stroke="rgb(255,0,0)" stroke-linecap="round" stroke-linejoin="round" stroke-width="2" />
</svg>
