<svg viewBox="0 0 24 24" xmlns="http://www.w3.org/2000/svg" xmlns:xlink="http://www.w3.org/1999/xlink" width="24.000000" height="24.000000" fill="none">
	<rect id="sensor-triangle-exclamation" width="24.000000" height="24.000000" x="0.000000" y="0.000000" />
	<path id="Icon" d="M19.9304 16.3689C20.6971 17.9024 21.0805 18.6691 20.9884 19.2924C20.908 19.8366 20.6069 20.3236 20.1561 20.6389C19.6399 21 18.7826 21 17.0682 21L13.4236 21C11.7092 21 10.852 21 10.3357 20.6389C9.88489 20.3236 9.58387 19.8366 9.50346 19.2924C9.41138 18.6691 9.79474 17.9024 10.5615 16.3689L12.3837 12.7244C13.305 10.8819 13.7656 9.96072 14.3889 9.66511C14.9313 9.40785 15.5606 9.40785 16.103 9.66511C16.7263 9.96072 17.1869 10.8819 18.1081 12.7244L19.9304 16.3689ZM15.2458 13L15.2458 15M15.2458 18L15.2558 18M8 8L8 12M5.5 19.9203C5.34666 19.8886 5.21397 19.8441 5.09202 19.782C4.71569 19.5903 4.40973 19.2843 4.21799 18.908C4 18.4802 4 17.9201 4 16.8L4 7.2C4 6.0799 4 5.51984 4.21799 5.09202C4.40973 4.71569 4.71569 4.40973 5.09202 4.21799C5.51984 4 6.0799 4 7.2 4L16.8 4C17.9201 4 18.4802 4 18.908 4.21799C19.2843 4.40973 19.5903 4.71569 19.782 5.09202C20 5.51984 20 6.0799 20 7.2L20 7.5" fill-rule="evenodd" stroke="rgb(239,239,239)" stroke-linecap="round" stroke-linejoin="round" stroke-width="2" />
</svg>
