<svg viewBox="0 0 24 24" xmlns="http://www.w3.org/2000/svg" xmlns:xlink="http://www.w3.org/1999/xlink" width="24.000000" height="24.000000" fill="none">
	<rect id="globe-alt" width="24.000000" height="24.000000" x="0.000000" y="0.000000" />
	<path id="Icon" d="M12 21C7.02944 21 3 16.9706 3 12C3 7.02944 7.02944 3 12 3C16.9706 3 21 7.02944 21 12C21 16.9706 16.9706 21 12 21ZM12 21C10.3431 21 9 16.9706 9 12C9 7.02944 10.3431 3 12 3M12 21C13.6569 21 15 16.9706 15 12C15 7.02944 13.6569 3 12 3M3 12C3 13.6569 7.02944 15 12 15C16.9706 15 21 13.6569 21 12M3 12C3 10.3431 7.02944 9 12 9C16.9706 9 21 10.3431 21 12" fill-rule="evenodd" stroke="rgb(239,239,239)" stroke-linecap="round" stroke-linejoin="round" stroke-width="2" />
</svg>
