<svg viewBox="0 0 24 24" xmlns="http://www.w3.org/2000/svg" xmlns:xlink="http://www.w3.org/1999/xlink" width="24.000000" height="24.000000" fill="none">
	<rect id="moneybag" width="24.000000" height="24.000000" x="0.000000" y="0.000000" />
	<path id="Icon" d="M17.8 8C17.9332 8 18.0586 8 18.1767 8.00037C19.0515 8.00308 19.531 8.02593 19.908 8.21799C20.2843 8.40973 20.5903 8.71569 20.782 9.09202C20.9741 9.46895 20.9969 9.94852 20.9996 10.8233C21 10.9414 21 11.0668 21 11.2L21 16.8C21 16.9334 21.0004 17.0589 21 17.1771C20.9973 18.0516 20.974 18.5311 20.782 18.908C20.5903 19.2843 20.2843 19.5903 19.908 19.782C19.531 19.9741 19.0515 19.9969 18.1767 19.9996C18.0586 20 17.9332 20 17.8 20L6.2 20C6.06676 20 5.94144 20 5.82333 19.9996C4.94852 19.9969 4.46895 19.9741 4.09202 19.782C3.71569 19.5903 3.40973 19.2843 3.21799 18.908C3.02593 18.531 3.00308 18.0515 3.00037 17.1767C3 17.0586 3 16.9332 3 16.8L3 11.2C3 11.0668 3 10.9414 3.00037 10.8233C3.00308 9.94852 3.02593 9.46895 3.21799 9.09202C3.40973 8.71569 3.71569 8.40973 4.09202 8.21799C4.46895 8.02593 4.94852 8.00308 5.82333 8.00037C5.94144 8 6.06676 8 6.2 8L17.8 8ZM12 16C10.8954 16 10 15.1046 10 14C10 12.8954 10.8954 12 12 12C13.1046 12 14 12.8954 14 14C14 15.1046 13.1046 16 12 16ZM5.82333 8.00037C6.2383 8.36683 6.5 8.90285 6.5 9.5C6.5 10.6046 5.60457 11.5 4.5 11.5C3.90285 11.5 3.36683 11.2383 3.00037 10.8233M20.9996 10.8233C20.6332 11.2383 20.0971 11.5 19.5 11.5C18.3954 11.5 17.5 10.6046 17.5 9.5C17.5 8.90285 17.7617 8.36683 18.1767 8.00037M18.1767 19.9996C17.7617 19.6332 17.5 19.0971 17.5 18.5C17.5 17.3954 18.3954 16.5 19.5 16.5C20.0973 16.5 20.6335 16.7619 21 17.1771M3.00037 17.1767C3.36683 16.7617 3.90285 16.5 4.5 16.5C5.60457 16.5 6.5 17.3954 6.5 18.5C6.5 19.0971 6.2383 19.6332 5.82333 19.9996M8 8L8 7.2C8 6.0799 8 5.51984 8.21799 5.09202C8.40973 4.71569 8.71569 4.40973 9.09202 4.21799C9.51984 4 10.0799 4 11.2 4L12.8 4C13.9201 4 14.4802 4 14.908 4.21799C15.2843 4.40973 15.5903 4.71569 15.782 5.09202C16 5.51984 16 6.0799 16 7.2L16 8" fill-rule="evenodd" stroke="rgb(139,92,246)" stroke-linecap="round" stroke-linejoin="round" stroke-width="2" />
</svg>
