<svg viewBox="0 0 24 24" xmlns="http://www.w3.org/2000/svg" xmlns:xlink="http://www.w3.org/1999/xlink" width="24.000000" height="24.000000" fill="none">
	<rect id="user-alt" width="24.000000" height="24.000000" x="0.000000" y="0.000000" />
	<path id="Icon" d="M12 11C9.79086 11 8 9.20914 8 7C8 4.79086 9.79086 3 12 3C14.2091 3 16 4.79086 16 7C16 9.20914 14.2091 11 12 11ZM9.52682 14.4682C9.00429 14.2315 8.74302 14.1131 8.59797 14.0722C8.4472 14.0297 8.35983 14.0143 8.20361 14.0026C8.05331 13.9914 7.94079 14 7.71575 14.0172C7.6237 14.0242 7.5425 14.0341 7.46558 14.048C6.23442 14.2709 5.27087 15.2344 5.04798 16.4656C5 16.7306 5 17.0485 5 17.6841L5 19.4C5 19.9601 5 20.2401 5.10899 20.454C5.20487 20.6422 5.35785 20.7951 5.54601 20.891C5.75992 21 6.03995 21 6.6 21L17.4 21C17.9601 21 18.2401 21 18.454 20.891C18.6422 20.7951 18.7951 20.6422 18.891 20.454C19 20.2401 19 19.9601 19 19.4L19 17.6787C19 17.0481 19 16.7328 18.9528 16.4697C18.7311 15.2352 17.7648 14.2689 16.5303 14.0472C16.4548 14.0337 16.3748 14.024 16.2842 14.0171C16.059 14 15.9464 13.9915 15.7961 14.0027C15.6399 14.0143 15.5527 14.0297 15.4019 14.0723C15.2569 14.1132 14.9957 14.2315 14.4732 14.4682C13.7191 14.8098 12.8817 15 12 15C11.1183 15 10.2809 14.8098 9.52682 14.4682Z" fill-rule="evenodd" stroke="rgb(239,239,239)" stroke-linecap="round" stroke-linejoin="round" stroke-width="2" />
</svg>
